<svg xmlns="http://www.w3.org/2000/svg" xmlns:xlink="http://www.w3.org/1999/xlink"><symbol id="arrow" viewBox="0 0 92 62.003"><g fill="none">
    <path d="M40.709 51.51a28.729 28.729 0 0 0 6.806 5.068 28.64 28.64 0 0 0 7.977 2.866c2.8.56 5.621.699 8.463.418a28.62 28.62 0 0 0 8.219-2.067 28.695 28.695 0 0 0 7.268-4.375 28.8 28.8 0 0 0 5.69-6.305 28.9 28.9 0 0 0 3.624-7.694A28.96 28.96 0 0 0 90 31a28.96 28.96 0 0 0-1.244-8.419 28.9 28.9 0 0 0-3.623-7.694 28.8 28.8 0 0 0-5.691-6.305 28.696 28.696 0 0 0-7.268-4.375 28.621 28.621 0 0 0-8.22-2.067 28.6 28.6 0 0 0-8.462.418c-2.8.559-5.46 1.514-7.977 2.866a28.73 28.73 0 0 0-6.806 5.069L39.29 9.083a30.716 30.716 0 0 1 7.278-5.42A30.63 30.63 0 0 1 55.1.597a30.59 30.59 0 0 1 9.05-.446 30.61 30.61 0 0 1 8.79 2.21 30.684 30.684 0 0 1 7.772 4.678 30.788 30.788 0 0 1 6.085 6.741 30.89 30.89 0 0 1 3.873 8.224A30.948 30.948 0 0 1 92 31.002c0 3.065-.443 6.064-1.33 8.997a30.89 30.89 0 0 1-3.872 8.224 30.79 30.79 0 0 1-6.085 6.74 30.685 30.685 0 0 1-7.771 4.678 30.61 30.61 0 0 1-8.79 2.211c-3.04.3-6.056.152-9.051-.446a30.63 30.63 0 0 1-8.532-3.066 30.719 30.719 0 0 1-7.278-5.42l1.418-1.41Zm-1.39 1.41h-.028a.99.99 0 0 1 .003-1.414.99.99 0 0 1 1.415.003v.028l-1.39 1.383Zm1.39-42.454v.028a.99.99 0 0 1-1.415.003.99.99 0 0 1-.003-1.414h.029l1.389 1.383Z" fill="currentColor"/>
    <path d="M5 31.002h60M58 24.002l7 7-7 7" stroke="currentColor" stroke-linecap="round" stroke-linejoin="round" stroke-width="2"/>
</g></symbol><symbol id="circles" viewBox="0 0 36 24"><g fill="none">
    <circle cx="12" cy="12" r="11.5" stroke="#1F1E1E"/>
    <circle cx="22" cy="12" r="11.5" stroke="#BC3324"/>
</g></symbol><symbol id="close" viewBox="0 0 60 60"><g fill="none">
    <path fill="none" d="M0 0h60v60H0z"/>
    <circle cx="30" cy="30" r="30" fill="currentColor"/>
    <g clip-path="url(#clipPath_0)">
        <path d="M18 18h24v24H18z"/>
        <path d="M36 24 24 36M24 24l12 12" stroke="#ffffffff" stroke-linecap="round" stroke-linejoin="round" stroke-width="2"/>
    </g>
</g></symbol><symbol id="LENNI" viewBox="0 0 1920 325"><g fill="none">
    <path d="M485.389 0v317.073h161.956V325H0V0h485.389Zm190.064 325h200.745v-7.927H713.443V159.935h126.765v-7.926H713.443V7.927H876V0H675.453v325ZM941.896 8.393V325h-37.99V0h37.99c16.395 0 56.784 3.73 92.374 35.438 28.79 25.179 47.59 60.15 57.18 108.177V0h37.99v325h-37.99V203.3C1083.46 22.382 976.286 8.393 941.896 8.393ZM1207.45 325V8.393c34.39 0 141.56 13.989 149.56 194.907V325H1395V0h-37.99v143.615c-9.6-48.027-28.4-82.998-57.19-108.177C1264.23 3.73 1223.84 0 1207.45 0h-37.99v325h37.99ZM1435.01 0H1920v325h-484.99V0Z" fill="#1F1E1E" fill-rule="evenodd"/>
</g></symbol><symbol id="logo" viewBox="0 0 202 147"><g fill="none">
    <path d="M0 0h202v147H0z"/>
    <path fill="#1F1E1E" d="M0 0h147v147H0z"/>
    <path d="M26.633 72.439h13.332V73h-18.05V49.999H26.6v.033h.033v22.407ZM43.931 73h18.117v-.561h-13.43V61.285H59.11v-.594H48.617V50.56h13.431v-.561H43.931V73ZM70.7 50.56V73h-4.686V49.999h4.686c6.468 0 10.956 4.191 12.375 10.329V49.999h4.686V73h-4.686v-8.547c-.66-12.804-9.504-13.893-12.375-13.893ZM97.389 73V50.56c2.871 0 11.715 1.089 12.375 13.893V73h4.686V49.999h-4.686v10.329c-1.419-6.138-5.907-10.329-12.375-10.329h-4.686V73h4.686Zm26.69 0h-4.686V49.999h4.686V73Z" fill="#FFF" fill-rule="evenodd"/>
    <path fill="#BC3324" d="M81 92h121v42H81z"/>
    <path d="M132.643 103.09V124h4.26v-7.23h5.07l4.89 7.2h4.86l-5.16-7.65c3-.78 5.28-2.64 5.28-6.81 0-5.22-3.81-6.87-8.25-6.87-4.68 0-6.03 3.51-6.69 7.41v-6.96h-4.26ZM109.462 124h-.54l7.2-20.91h4.53l8.1 20.91h-4.47l-3.33-8.55h-8.55l-2.94 8.55Zm52.651 0-.03-20.4h-8.61v-.51h21.51v.51h-8.61V124h-4.26Zm-24.04-16.53c.81-2.94 2.91-4.14 4.77-4.29 4.47-.42 4.65 2.43 4.65 6.33 0 6.33-3.36 6.75-6.24 6.75h-4.35s-.12-4.14 1.17-8.79Zm-17.301 7.47-4.35-11.19-3.84 11.19h8.19Z" fill="#FFF" fill-rule="evenodd"/>
</g></symbol><symbol id="logout-icon"><g fill="none">
    <path d="M0 0h24v24H0z"/>
    <path d="m10 17 5-5-5-5M15 12H3M15 3h4a2 2 0 0 1 2 2v14a2 2 0 0 1-2 2h-4" stroke="#1F1E1E" stroke-linecap="round" stroke-linejoin="round" stroke-width="2"/>
</g></symbol><symbol id="table_map" viewBox="0 0 780 399"><g fill="none">
    <path d="M462 82.5c0 38.936-31.564 70.5-70.5 70.5S321 121.436 321 82.5 352.564 12 391.5 12 462 43.564 462 82.5Z" fill="#1F1E1E"/>
    <path d="M362.453 89.207h-1.867v-9.82h-3.359v-1.602h8.585v1.602h-3.359v9.82Zm10.328 0-.367-1.203h-.062c-.417.526-.836.885-1.258 1.078-.422.188-.964.281-1.625.281-.849 0-1.513-.229-1.992-.687-.474-.459-.711-1.107-.711-1.945 0-.891.33-1.563.992-2.016.661-.453 1.669-.7 3.023-.742l1.492-.047v-.461c0-.552-.13-.964-.39-1.234-.255-.277-.654-.415-1.195-.415-.443 0-.868.066-1.274.196s-.797.284-1.172.46l-.594-1.312c.469-.245.982-.43 1.54-.554a6.944 6.944 0 0 1 1.578-.196c1.099 0 1.927.24 2.484.719.562.48.844 1.232.844 2.258v5.82h-1.313Zm-2.734-1.25c.667 0 1.2-.185 1.601-.555.407-.375.61-.898.61-1.57v-.75l-1.11.047c-.864.031-1.494.177-1.89.437-.391.256-.586.649-.586 1.18 0 .386.114.685.344.898.229.209.573.313 1.031.313Zm8.445-7.39v3.468h4.07v-3.469h1.836v8.641h-1.836v-3.726h-4.07v3.726h-1.836v-8.64h1.836Zm16.235 7.218h1.25v4.461h-1.727v-3.039h-7.219v-8.64h1.836v7.187h4.024v-7.188h1.836v7.22Zm10.375-7.219v8.641h-1.844v-7.188h-3.875v7.188h-1.836v-8.64h7.555Zm10.296 4.305c0 1.412-.362 2.513-1.086 3.305-.723.791-1.731 1.187-3.023 1.187-.807 0-1.521-.182-2.141-.547a3.612 3.612 0 0 1-1.429-1.57c-.334-.682-.5-1.474-.5-2.375 0-1.4.359-2.495 1.078-3.281.719-.787 1.732-1.18 3.039-1.18 1.25 0 2.24.404 2.969 1.211.729.802 1.093 1.886 1.093 3.25Zm-6.289 0c0 1.995.737 2.992 2.211 2.992 1.459 0 2.188-.997 2.188-2.992 0-1.974-.735-2.96-2.203-2.96-.771 0-1.331.254-1.68.765-.344.51-.516 1.242-.516 2.195Zm15.508 4.336h-1.851v-7.203h-2.383c-.146 1.854-.344 3.302-.594 4.344-.245 1.041-.568 1.802-.969 2.28-.396.48-.911.72-1.547.72-.401 0-.737-.058-1.007-.172v-1.438c.192.073.385.11.578.11.531 0 .948-.597 1.25-1.79.307-1.197.547-3.028.718-5.492h5.805v8.641Z" fill="#FFF"/>
    <path d="M15 65h95V0h32v93H15V65Z" fill="#1F1E1E"/>
    <path d="M121.199 85.259h-3.916V77.7c0-.918.02-1.758.059-2.52a8.407 8.407 0 0 1-.899.919l-1.621 1.337-2.002-2.46 4.903-3.995h3.476V85.26Zm13.535-7.12c0 2.527-.423 4.379-1.269 5.557-.847 1.172-2.142 1.758-3.887 1.758-1.706 0-2.991-.612-3.857-1.836-.866-1.23-1.299-3.056-1.299-5.478 0-2.54.423-4.401 1.269-5.586.847-1.185 2.142-1.778 3.887-1.778 1.699 0 2.982.619 3.848 1.856.872 1.23 1.308 3.066 1.308 5.508Zm-6.474 0c0 1.615.101 2.725.302 3.33.202.606.541.909 1.016.909.482 0 .82-.313 1.016-.938.202-.625.302-1.725.302-3.3 0-1.582-.1-2.69-.302-3.32-.202-.639-.541-.958-1.016-.958s-.814.306-1.016.918c-.201.612-.302 1.732-.302 3.36Z" fill="#FFF"/>
    <circle cx="27" cy="50" r="12" fill="#1F1E1E"/>
    <circle cx="61" cy="50" r="12" fill="#1F1E1E"/>
    <circle cx="94" cy="50" r="12" fill="#1F1E1E"/>
    <circle cx="94" cy="16" r="12" fill="#1F1E1E"/>
    <path stroke="#1F1E1E" d="M712.5 4.5h40v93h-40z"/>
    <path d="M737.957 60.259h-10.361v-2.54l3.486-3.525c.996-1.041 1.647-1.751 1.953-2.129.306-.384.518-.712.635-.986.124-.273.185-.56.185-.86 0-.37-.12-.663-.361-.878-.241-.215-.579-.322-1.015-.322-.45 0-.905.13-1.368.39-.455.254-.973.632-1.552 1.133l-2.12-2.48c.736-.658 1.355-1.127 1.856-1.407a6.519 6.519 0 0 1 1.631-.654 8.132 8.132 0 0 1 1.992-.225c.924 0 1.748.163 2.471.489.729.325 1.292.79 1.689 1.396.404.6.606 1.273.606 2.022 0 .56-.072 1.077-.215 1.552a5.443 5.443 0 0 1-.645 1.407 9.645 9.645 0 0 1-1.172 1.445c-.481.508-1.513 1.471-3.095 2.89v.098h5.4v3.184Z" fill="#1F1E1E"/>
    <circle cx="697" cy="16" r="11.5" stroke="#1F1E1E"/>
    <circle cx="768" cy="17" r="11.5" stroke="#1F1E1E"/>
    <circle cx="697" cy="49" r="11.5" stroke="#1F1E1E"/>
    <circle cx="768" cy="50" r="11.5" stroke="#1F1E1E"/>
    <circle cx="697" cy="82" r="11.5" stroke="#1F1E1E"/>
    <circle cx="768" cy="83" r="11.5" stroke="#1F1E1E"/>
    <circle cx="733" cy="113" r="11.5" stroke="#1F1E1E"/>
    <path stroke="#1F1E1E" d="M712.5 185.5h40v93h-40z"/>
    <path d="M737.479 230.077c0 .886-.271 1.647-.811 2.285-.54.632-1.322 1.091-2.344 1.377v.059c2.383.299 3.574 1.426 3.574 3.379 0 1.328-.527 2.373-1.582 3.135-1.048.761-2.506 1.142-4.375 1.142a12.86 12.86 0 0 1-2.138-.166 11.174 11.174 0 0 1-2.119-.605v-3.204c.625.32 1.259.557 1.904.713.651.15 1.25.225 1.797.225.846 0 1.461-.117 1.845-.352.391-.24.586-.615.586-1.123 0-.39-.1-.69-.302-.898-.202-.215-.528-.374-.977-.479-.449-.11-1.035-.166-1.758-.166h-.879v-2.9h.899c1.959 0 2.939-.501 2.939-1.504 0-.377-.146-.657-.439-.84-.287-.182-.674-.273-1.162-.273-.912 0-1.856.306-2.832.918l-1.602-2.578a7.8 7.8 0 0 1 2.315-1.114c.794-.221 1.702-.332 2.724-.332 1.478 0 2.637.293 3.477.879.84.586 1.26 1.394 1.26 2.422Z" fill="#1F1E1E"/>
    <circle cx="697" cy="197" r="11.5" stroke="#1F1E1E"/>
    <circle cx="768" cy="198" r="11.5" stroke="#1F1E1E"/>
    <circle cx="697" cy="230" r="11.5" stroke="#1F1E1E"/>
    <circle cx="768" cy="231" r="11.5" stroke="#1F1E1E"/>
    <circle cx="697" cy="263" r="11.5" stroke="#1F1E1E"/>
    <circle cx="768" cy="264" r="11.5" stroke="#1F1E1E"/>
    <circle cx="733" cy="294" r="11.5" stroke="#1F1E1E"/>
    <path fill="#BFBFBF" d="M494 278h41v94h-41z"/>
    <path stroke="#BFBFBF" d="M494.5 278.5h40v93h-40z"/>
    <path d="M515.484 322.903c.821 0 1.56.192 2.217.576a3.877 3.877 0 0 1 1.543 1.612c.371.696.557 1.5.557 2.412 0 1.595-.482 2.819-1.446 3.672-.957.853-2.408 1.279-4.355 1.279-1.667 0-3.027-.257-4.082-.771v-3.164c.566.26 1.204.475 1.914.644.716.169 1.331.254 1.846.254.716 0 1.266-.15 1.65-.449.384-.306.576-.755.576-1.348 0-.547-.195-.973-.586-1.279-.39-.306-.983-.459-1.777-.459-.605 0-1.26.114-1.963.342l-1.416-.703.537-7.54h8.145v3.213h-4.864l-.175 1.885c.507-.098.869-.15 1.084-.156.215-.013.413-.02.595-.02Z" opacity=".9" fill="#1F1E1E"/>
    <circle cx="479" cy="290" r="12" fill="#BFBFBF"/>
    <circle cx="479" cy="290" r="11.5" stroke="#BFBFBF"/>
    <circle cx="550" cy="291" r="12" fill="#BFBFBF"/>
    <circle cx="550" cy="291" r="11.5" stroke="#BFBFBF"/>
    <circle cx="479" cy="323" r="12" fill="#BFBFBF"/>
    <circle cx="479" cy="323" r="11.5" stroke="#BFBFBF"/>
    <circle cx="550" cy="324" r="12" fill="#BFBFBF"/>
    <circle cx="550" cy="324" r="11.5" stroke="#BFBFBF"/>
    <circle cx="479" cy="356" r="12" fill="#BFBFBF"/>
    <circle cx="479" cy="356" r="11.5" stroke="#BFBFBF"/>
    <circle cx="550" cy="357" r="12" fill="#BFBFBF"/>
    <circle cx="550" cy="357" r="11.5" stroke="#BFBFBF"/>
    <circle cx="515" cy="387" r="12" fill="#BFBFBF"/>
    <circle cx="515" cy="387" r="11.5" stroke="#BFBFBF"/>
    <path stroke="#1F1E1E" d="M273.5 278.5h40v93h-40z"/>
    <circle cx="258" cy="290" r="11.5" stroke="#1F1E1E"/>
    <circle cx="329" cy="291" r="11.5" stroke="#1F1E1E"/>
    <circle cx="258" cy="323" r="11.5" stroke="#1F1E1E"/>
    <circle cx="329" cy="324" r="11.5" stroke="#1F1E1E"/>
    <circle cx="258" cy="356" r="11.5" stroke="#1F1E1E"/>
    <circle cx="329" cy="357" r="11.5" stroke="#1F1E1E"/>
    <circle cx="294" cy="387" r="11.5" stroke="#1F1E1E"/>
    <path d="M288.684 327.224c0-1.993.283-3.604.849-4.834.573-1.237 1.413-2.149 2.52-2.735 1.113-.586 2.483-.879 4.111-.879a14.7 14.7 0 0 1 2.031.166v3.018a11.332 11.332 0 0 0-2.119-.186c-1.289 0-2.249.284-2.881.85-.631.566-.976 1.491-1.035 2.773h.117c.586-1.106 1.527-1.66 2.823-1.66 1.269 0 2.252.41 2.949 1.231.703.814 1.055 1.95 1.055 3.408 0 1.569-.443 2.809-1.329 3.721-.885.905-2.122 1.357-3.711 1.357-1.686 0-3.004-.547-3.955-1.641-.95-1.093-1.425-2.623-1.425-4.589Zm5.293 3.173c.41 0 .742-.153.996-.459.26-.312.39-.807.39-1.484 0-1.159-.449-1.738-1.347-1.738-.443 0-.804.15-1.084.449-.274.3-.411.664-.411 1.094 0 .625.134 1.139.401 1.543.267.397.618.595 1.055.595Z" fill="#1F1E1E"/>
    <path stroke="#1F1E1E" d="M27.5 185.5h40v93h-40z"/>
    <circle cx="12" cy="197" r="11.5" stroke="#1F1E1E"/>
    <circle cx="83" cy="198" r="11.5" stroke="#1F1E1E"/>
    <circle cx="12" cy="230" r="11.5" stroke="#1F1E1E"/>
    <circle cx="83" cy="231" r="11.5" stroke="#1F1E1E"/>
    <circle cx="12" cy="263" r="11.5" stroke="#1F1E1E"/>
    <circle cx="83" cy="264" r="11.5" stroke="#1F1E1E"/>
    <circle cx="48" cy="294" r="11.5" stroke="#1F1E1E"/>
    <path d="M45.2 241.259h-3.917V233.7c0-.918.02-1.758.059-2.519-.241.293-.54.599-.899.918l-1.62 1.338-2.003-2.461 4.903-3.995h3.476v14.278Zm11.718 0h-3.916V233.7c0-.918.02-1.758.058-2.519a8.36 8.36 0 0 1-.898.918l-1.621 1.338-2.002-2.461 4.902-3.995h3.477v14.278Z" fill="#1F1E1E"/>
    <path stroke="#BC3324" d="M222.5 27.5h61v36h-61z"/>
    <path d="M256.064 45.515c0 2.793-.602 4.814-1.806 6.064-1.205 1.25-3.132 1.875-5.781 1.875-.873 0-1.537-.032-1.993-.098V50.3c.56.104 1.12.156 1.68.156 1.38 0 2.445-.283 3.193-.85.749-.573 1.156-1.474 1.221-2.705h-.117c-.254.47-.505.808-.752 1.016-.247.208-.55.368-.908.478-.358.111-.804.166-1.338.166-1.237 0-2.204-.413-2.901-1.24-.696-.826-1.044-1.966-1.044-3.418 0-1.582.449-2.822 1.347-3.72.905-.899 2.142-1.348 3.711-1.348 1.745 0 3.096.58 4.053 1.738.957 1.16 1.435 2.806 1.435 4.942Zm-5.38-3.594a1.31 1.31 0 0 0-1.036.459c-.26.306-.39.797-.39 1.474 0 .534.114.96.342 1.28.227.312.576.468 1.045.468.423 0 .791-.152 1.103-.458.313-.306.469-.674.469-1.104 0-.58-.147-1.077-.44-1.494-.286-.417-.651-.625-1.093-.625Z" fill="#BC3324"/>
    <circle cx="12" cy="12" r="11.5" stroke="#BC3324" transform="rotate(180 131.5 45.5)"/>
    <circle cx="12" cy="12" r="11.5" stroke="#BC3324" transform="rotate(180 109 27.5)"/>
    <circle cx="12" cy="12" r="11.5" stroke="#BC3324" transform="rotate(180 131.5 12)"/>
    <path stroke="#BC3324" d="M187.5 169.5h61v36h-61z"/>
    <path d="M215.898 180.776c1.504 0 2.673.303 3.506.909.84.605 1.26 1.464 1.26 2.578 0 .755-.199 1.419-.596 1.992-.39.566-1.012 1.061-1.865 1.484 1.055.599 1.797 1.198 2.227 1.797.436.593.654 1.234.654 1.924 0 1.269-.459 2.253-1.377 2.949-.918.697-2.2 1.045-3.848 1.045-1.679 0-2.965-.338-3.857-1.016-.892-.683-1.338-1.663-1.338-2.939 0-.827.199-1.53.596-2.109.397-.586 1.064-1.117 2.002-1.592-.755-.508-1.309-1.052-1.66-1.631a3.723 3.723 0 0 1-.518-1.924c0-1.094.426-1.943 1.279-2.549.853-.612 2.032-.918 3.535-.918Zm-1.699 10.567c0 .403.143.729.43.976.286.241.683.362 1.191.362 1.146 0 1.719-.42 1.719-1.26 0-.319-.127-.632-.381-.938-.247-.312-.693-.66-1.338-1.045-.579.306-.996.616-1.25.928-.247.306-.371.632-.371.977Zm1.68-7.783c-.332 0-.612.097-.84.293a.916.916 0 0 0-.342.742c0 .56.381 1.054 1.143 1.484.462-.267.778-.511.947-.732.169-.222.254-.472.254-.752a.927.927 0 0 0-.342-.752 1.242 1.242 0 0 0-.82-.283Z" fill="#BC3324"/>
    <circle cx="12" cy="12" r="11.5" stroke="#BC3324" transform="rotate(180 114 116.5)"/>
    <circle cx="12" cy="12" r="11.5" stroke="#BC3324" transform="rotate(180 91.5 98.5)"/>
    <circle cx="12" cy="12" r="11.5" stroke="#BC3324" transform="rotate(180 114 83)"/>
    <path fill="#A41404" d="M507 35h84v29h-84z"/>
    <path d="M552.199 56.259h-3.916V48.7c0-.918.02-1.758.059-2.52a8.407 8.407 0 0 1-.899.919l-1.621 1.338-2.002-2.461 4.903-3.995h3.476V56.26Z" fill="#FFF"/>
    <circle cx="527" cy="20" r="12" fill="#A41404"/>
    <circle cx="570" cy="20" r="12" fill="#A41404"/>
    <circle cx="606" cy="48" r="12" fill="#A41404"/>
    <circle cx="570" cy="79" r="12" fill="#A41404"/>
    <circle cx="527" cy="79" r="12" fill="#A41404"/>
    <path stroke="#BC3324" d="M507.5 182.5h83v28h-83z"/>
    <path d="M554.416 199.495h-1.572v2.764h-3.809v-2.764h-5.693v-2.832l5.937-8.682h3.565v8.633h1.572v2.881Zm-5.381-2.881v-1.66c0-.312.01-.732.029-1.26.027-.534.046-.813.059-.84h-.107c-.222.502-.472.971-.752 1.407l-1.582 2.353h2.353Z" fill="#BC3324"/>
    <circle cx="527" cy="167" r="11.5" stroke="#BC3324"/>
    <circle cx="570" cy="167" r="11.5" stroke="#BC3324"/>
    <circle cx="606" cy="195" r="11.5" stroke="#BC3324"/>
    <circle cx="570" cy="226" r="11.5" stroke="#BC3324"/>
    <circle cx="527" cy="226" r="11.5" stroke="#BC3324"/>
    <path fill="#A41404" d="M320 183h84v29h-84z"/>
    <path d="m358.041 204.259 4.902-11.065h-6.181v-3.193h10.302v2.275l-5.029 11.983h-3.994Z" fill="#FFF"/>
    <circle cx="383" cy="227" r="12" fill="#A41404"/>
    <circle cx="419" cy="197" r="12" fill="#A41404"/>
    <circle cx="305" cy="197" r="12" fill="#A41404"/>
    <circle cx="340" cy="227" r="12" fill="#A41404"/>
</g></symbol><symbol id="user_icon"><g fill="none">
    <path d="M0 0h24v24H0z"/>
    <path d="M13.3 12.22A4.92 4.92 0 0 0 15 8.5a5 5 0 0 0-10 0 4.92 4.92 0 0 0 1.7 3.72A8 8 0 0 0 2 19.5a1 1 0 1 0 2 0 6 6 0 1 1 12 0 1 1 0 0 0 2 0 8 8 0 0 0-4.7-7.28ZM10 11.5a3 3 0 1 1 0-6 3 3 0 0 1 0 6Zm11.71-2.37a1 1 0 0 0-1.42 0l-2 2-.62-.63a1.002 1.002 0 0 0-1.71.705 1 1 0 0 0 .29.705l1.34 1.34a1 1 0 0 0 1.41 0l2.67-2.67a1 1 0 0 0 .04-1.45Z" fill="#1F1E1E"/>
</g></symbol></svg>