<svg viewBox="0 0 65 65" xmlns="http://www.w3.org/2000/svg" fill="none">
	<rect id="star" width="65.000000" height="65.000000" x="0.000000" y="0.000000" fill="rgb(31,30,30)" />
	<g>
		<rect id="star" width="24.000000" height="24.000000" x="20.500000" y="21.000000" />
		<path id="Vector" d="M42.163 29.7716C42.3156 29.8905 42.4305 30.0512 42.4936 30.2341C42.5423 30.417 42.538 30.6099 42.4814 30.7905C42.4247 30.971 42.318 31.1318 42.1736 31.2541L38.0436 35.2541L39.0436 40.9341C39.0793 41.1216 39.0606 41.3154 38.9898 41.4926C38.9189 41.6698 38.7988 41.823 38.6436 41.9341C38.472 42.0583 38.2655 42.1249 38.0536 42.1241C37.8925 42.1246 37.734 42.0833 37.5936 42.0041L32.4936 39.3241L27.3736 41.9941C27.2094 42.0812 27.0242 42.1208 26.8387 42.1084C26.6532 42.096 26.4748 42.0322 26.3236 41.9241C26.1685 41.813 26.0484 41.6598 25.9775 41.4826C25.9066 41.3054 25.8879 41.1116 25.9236 40.9241L26.9236 35.2441L22.7936 31.2441C22.6651 31.1158 22.5739 30.955 22.5299 30.7788C22.4858 30.6026 22.4906 30.4178 22.5436 30.2441C22.6016 30.0664 22.7082 29.9085 22.8514 29.7883C22.9946 29.6681 23.1686 29.5904 23.3536 29.5641L29.0436 28.7241L31.5936 23.5641C31.6755 23.395 31.8034 23.2525 31.9625 23.1527C32.1217 23.0529 32.3058 23 32.4936 23C32.6815 23 32.8655 23.0529 33.0247 23.1527C33.1839 23.2525 33.3117 23.395 33.3936 23.5641L35.9436 28.7341L41.6336 29.5641C41.8264 29.5806 42.0103 29.6527 42.163 29.7716Z" fill="rgb(188.062,51.332,36.0453)" fill-rule="evenodd" />
	</g>
</svg>
