<svg viewBox="0 0 65 65" xmlns="http://www.w3.org/2000/svg"
	fill="none">
	<rect width="65.000000" height="65.000000" x="0.000000" y="0.000000"
		fill="rgb(31,30,30)" />
	<g>
		<rect id="u:home-alt" width="24.000000" height="24.000000" x="21.000000" y="21.000000" />
		<path id="Vector"
			d="M41.0001 29L35.0001 23.74C34.4501 23.2481 33.738 22.9761 33.0001 22.9761C32.2622 22.9761 31.5501 23.2481 31.0001 23.74L25.0001 29C24.6825 29.2841 24.429 29.6326 24.2566 30.0223C24.0841 30.4119 23.9967 30.8339 24.0001 31.26L24.0001 40C24.0001 40.7957 24.3162 41.5587 24.8788 42.1213C25.4414 42.6839 26.2044 43 27.0001 43L39.0001 43C39.7957 43 40.5588 42.6839 41.1214 42.1213C41.684 41.5587 42.0001 40.7957 42.0001 40L42.0001 31.25C42.0021 30.8256 41.9139 30.4055 41.7416 30.0177C41.5692 29.6298 41.3165 29.283 41.0001 29ZM35.0001 41L31.0001 41L31.0001 36C31.0001 35.7348 31.1055 35.4804 31.293 35.2929C31.4805 35.1054 31.7349 35 32.0001 35L34.0001 35C34.2653 35 34.5197 35.1054 34.7072 35.2929C34.8947 35.4804 35.0001 35.7348 35.0001 36L35.0001 41Z"
			fill="rgb(188.062,51.332,36.0453)" fill-rule="evenodd" />
	</g>
</svg>